<svg xmlns="http://www.w3.org/2000/svg" width="35" height="39"><path d="M17.5 1c-5.283 0-9.582 4.7-9.582 10.454 0 4.775 2.296 10.25 4.555 14.602s4.51 7.57 4.51 7.57c.12.18.31.287.516.287s.395-.108.516-.287c0 0 2.256-3.263 4.51-7.64s4.555-9.856 4.555-14.53C27.082 5.7 22.783 1 17.5 1zm0 1.407c4.592 0 8.293 4.036 8.293 9.047 0 4.166-2.17 9.563-4.382 13.852-1.807 3.507-3.312 5.806-3.9 6.703-.602-.884-2.105-3.155-3.9-6.633-2.2-4.26-4.382-9.644-4.382-13.92 0-5 3.7-9.047 8.293-9.047zm0 4.57c-2.637 0-4.79 2.35-4.79 5.227s2.154 5.227 4.79 5.227 4.79-2.35 4.79-5.227-2.154-5.227-4.79-5.227zm0 1.454c1.92 0 3.46 1.678 3.46 3.773s-1.54 3.773-3.46 3.773-3.46-1.678-3.46-3.773S15.58 8.43 17.5 8.43zm-6.768 18.14c-2.75.44-5.076 1.134-6.79 2.04-.857.45-1.565.955-2.084 1.547S1 31.484 1 32.266c0 1.072.628 1.99 1.526 2.72s2.108 1.318 3.588 1.828c2.956 1.02 6.96 1.64 11.386 1.64s8.43-.62 11.386-1.64c1.48-.51 2.692-1.098 3.588-1.828S34 33.34 34 32.266c0-.78-.34-1.517-.86-2.11s-1.227-1.096-2.084-1.547c-1.713-.905-4.04-1.6-6.79-2.04-.38-.065-.736.22-.795.633s.2.802.58.867c2.654.425 4.888 1.1 6.403 1.9.757.4 1.343.838 1.697 1.242s.473.74.473 1.055c0 .43-.263.925-.967 1.5s-1.797 1.14-3.18 1.617c-2.766.953-6.67 1.57-10.98 1.57s-8.212-.618-10.98-1.57c-1.383-.477-2.476-1.042-3.18-1.617s-.967-1.07-.967-1.5c0-.314.118-.65.473-1.055s.94-.84 1.697-1.242c1.515-.8 3.75-1.474 6.403-1.9.38-.065.64-.454.58-.867s-.416-.698-.795-.633z" fill="#2d569e" stroke="#2f5b9c" fill-rule="evenodd"/></svg>