<svg xmlns="http://www.w3.org/2000/svg" width="65" height="63"><path fill="#fff" d="M51.212 0c-1.514 0-2.958.24-4.31.685l-2.155.685 9.35 9.287-1.68 4.237-4.266 1.67-9.35-9.288-.69 2.14c-.447 1.342-.69 2.776-.69 4.28 0 5.585 3.43 10.288 8.273 12.41v30.046c0 3.766 3.102 6.848 6.894 6.848s6.894-3.082 6.894-6.848V24.567c3.323-2.5 5.515-6.42 5.515-10.87C65 6.147 58.812 0 51.212 0zm0 3c6 0 10.833 4.93 10.833 11.048 0 3.84-1.92 7.213-4.824 9.192l-.593.39v33.228c0 2.303-1.804 4.143-4.063 4.143s-4.063-1.84-4.063-4.143V24.793l-.888-.345c-4.206-1.515-7.237-5.578-7.237-10.4 0-.362.138-.685.17-1.036l7.024 7.164.804-.345 5.544-2.245.55-.215.21-.56 2.202-5.654.34-.82-7.025-7.163C50.54 3.14 50.857 3 51.212 3zM30.47 17a6.73 6.73 0 0 0-4.443 1.7l-9.057 7.948-13.88 3.484A4.09 4.09 0 0 0 0 34.084v7.396c0 2.237 1.835 4.08 4.063 4.08h1.48C6.178 48.65 8.93 51 12.187 51s6-2.35 6.644-5.44h24.502v-2.72H18.83c-.634-3.09-3.385-5.44-6.644-5.44s-6 2.35-6.644 5.44h-1.48c-.766 0-1.354-.6-1.354-1.36v-7.396c0-.63.408-1.163 1.016-1.316l14.22-3.57c.206-.053.39-.155.55-.298l9.3-8.16a4.03 4.03 0 0 1 2.666-1.02h6.094V17H30.47zm-18.65 23c2.2 0 3.94 1.776 3.94 4s-1.75 4-3.94 4-3.94-1.776-3.94-4 1.75-4 3.94-4z"/></svg>