<svg xmlns="http://www.w3.org/2000/svg" xmlns:xlink="http://www.w3.org/1999/xlink" width="34" height="34"><defs><path id="A" d="M.045.74h33.212V34H.045z"/></defs><g fill-rule="evenodd"><mask id="B" fill="#fff"><use xlink:href="#A"/></mask><path d="M6.68.746c-.582-.047-1.228.12-1.824.54-.526.366-1.66 1.266-2.718 2.285-.528.507-1.033 1.036-1.423 1.555S-.02 6.122 0 6.812c.02.62.082 2.453 1.402 5.262s3.878 6.66 8.87 11.652 8.845 7.553 11.652 8.872 4.642 1.38 5.262 1.402c.688.02 1.164-.322 1.683-.714s1.048-.895 1.556-1.423c1.015-1.06 1.915-2.193 2.28-2.718.836-1.19.697-2.594-.233-3.247a419.6 419.6 0 0 0-6.768-4.483c-.82-.502-1.765-.275-2.6.17l-2.975 1.677c-.387-.245-1.853-1.222-5.01-4.377s-4.132-4.622-4.377-5.01L12.41 10.9c.443-.842.69-1.794.162-2.62l-2.243-3.42-2.234-3.344V1.51C7.768 1.06 7.257.794 6.68.746zM6.54 2.3c.207.026.33.1.33.1l2.196 3.3 2.23 3.4c.03.045.07.546-.224 1.104v.003L8.97 13.93l.22.378s1.16 1.956 4.85 5.646 5.65 4.852 5.65 4.852l.378.22.38-.215 3.353-1.89c.558-.292 1.06-.254 1.118-.218a665.71 665.71 0 0 1 6.685 4.43c.012.01.328.487-.133 1.142h-.003c-.277.398-1.186 1.552-2.134 2.538-.475.493-.962.954-1.375 1.263s-.782.407-.723.4c-.644-.02-2.063-.036-4.67-1.26S16.24 27.56 11.34 22.655c-4.9-4.9-7.346-8.618-8.57-11.227S1.532 7.402 1.51 6.76c.003.06.1-.313.4-.726s.768-.903 1.26-1.378C4.17 3.7 5.32 2.8 5.72 2.524v.003c.328-.23.614-.26.82-.236z" stroke="#2d569e" fill="#2e4fa0" mask="url(#B)"/></g></svg>