<svg xmlns="http://www.w3.org/2000/svg" width="50" height="32"><g transform="translate(105 27)"><defs><filter id="A" filterUnits="userSpaceOnUse" x="-105" y="-27" width="50.003" height="32"><feColorMatrix values="1 0 0 0 0 0 1 0 0 0 0 0 1 0 0 0 0 0 1 0"/></filter></defs><mask maskUnits="userSpaceOnUse" x="-105" y="-27" width="50.003" height="32" id="B"><g filter="url(#A)"><path fill="#fff" d="M-104.94-27H-55V5h-49.94z"/></g></mask><path mask="url(#B)" fill="#2e4fa0" d="M-98-27c-1.094 0-2 .906-2 2v2h-4.094c-.515.047-.9.48-.906 1V0a1 1 0 0 0 1 1h4v2c0 1.094.906 2 2 2h8c1.094 0 2-.906 2-2v-5c0-1.094-.906-2-2-2h-2v-1h-2v1h-3v-2h8.47l2.687 4.5A1.01 1.01 0 0 0-85-1h7a.98.98 0 0 0 .594-.188L-70.656-6H-67c2.004 0 4.133-.312 6-.688V0a1 1 0 0 0 1 1h4a1 1 0 0 0 1-1v-8.875c.004-.043.004-.082 0-.125v-13a1 1 0 0 0-1-1h-4.188A1 1 0 0 0-61-22v6.688c-1.855-.372-3.97-.688-6-.688h-3.656l-6.75-4.812A.98.98 0 0 0-78-21h-7.094a1 1 0 0 0-.75.5L-88.53-16H-97v-2h3v1h2v-1h2c1.094 0 2-.906 2-2v-5c0-1.094-.906-2-2-2h-8zm27 1c-1.094 0-2 .906-2 2v4c0 1.094.906 2 2 2h1v1h2v-1h1v1h2v-1h1c1.094 0 2-.906 2-2v-4c0-1.094-.906-2-2-2h-7zm-27 1h8v5h-7a2.99 2.99 0 0 0-1-2.219V-25zm27 5h7v-4h-7v4zm-32-1h3a.98.98 0 0 1 1 1v4.844c-.004.05-.004.105 0 .156v13a.98.98 0 0 1-1 1h-3v-20zm44 0h2v6.688l-2-.563V-21zm-25.47 2h6.125l6.75 4.812A.98.98 0 0 0-71-14h4c4.328 0 9.03 1.44 10 1.75v2.5C-57.98-9.445-62.77-8-67-8h-4a.98.98 0 0 0-.594.188L-78.344-3h-6.125l-2.687-4.5A1.01 1.01 0 0 0-88-8h-9v-6h9a1.01 1.01 0 0 0 .844-.5l2.687-4.5zm1.28 4A1 1 0 0 0-84-14v6a1 1 0 0 0 1 1h5c2.2 0 4-1.8 4-4s-1.8-4-4-4h-5.188zM-82-13h4c1.117 0 2 .883 2 2s-.883 2-2 2h-4v-4zm25 5.312V-1h-2v-6.125c.785-.195 1.465-.406 2-.563zM-70-5v1h-1c-1.094 0-2 .906-2 2v4c0 1.094.906 2 2 2h7c1.094 0 2-.906 2-2v-4c0-1.094-.906-2-2-2h-1v-1h-2v1h-1v-1h-2zm-27 3h7v5h-8V.22A2.99 2.99 0 0 0-97-2zm26 4h7v-4h-7v4z"/></g></svg>