<svg xmlns="http://www.w3.org/2000/svg" width="61" height="61"><path d="M22.875 29.375l-8.273-8.273H9.836L1.258 6.805l5.528-5.528 14.297 8.578v4.766l8.292 8.254L35.6 16.65l-2.154-6.472L43.653 0l9.722 3.23-6.472 6.472 1.077 3.23 3.23 1.077 6.453-6.462 3.24 9.703L50.687 27.47l-6.462-2.164-4.05 4.05 10.76 10.76h4.29L61 45.893v6.843L52.736 61h-6.843l-5.72-5.776v-4.308l-10.8-10.76-4.07 4.07 2.154 6.472-10.208 10.208-9.703-3.24 6.472-6.472-1.077-3.23-3.23-1.077-6.48 6.49L0 43.653l10.218-10.218L16.69 35.6l6.186-6.214zm12.953 4.3L47.513 45.32l-2.164 2.164-11.657-11.647-2.154 2.154 11.647 11.657v4.308l3.965 3.984h4.318l6.48-6.472V47.16l-3.984-3.984h-4.29L38.01 31.5l-2.154 2.154-.03.01zm-18.32 5.404l-6.472-2.154-7.55 7.55 1.077 3.23 4.308-4.318 6.472 2.154 2.154 6.472-4.308 4.308 3.23 1.077 7.55-7.55-2.154-6.472 21.58-21.56 6.472 2.154 7.55-7.55-1.077-3.23-4.308 4.318-6.48-2.164-2.154-6.462 4.318-4.308-3.24-1.087-7.55 7.55 2.154 6.472-21.57 21.57zm9.712-14.02l-9.16-9.16V11.58L7.272 5.118 5.118 7.272l6.472 10.78h4.318l9.16 9.16 2.154-2.154z" fill="#2e4fa0" fill-rule="evenodd"/></svg>