<?xml version="1.0" encoding="UTF-8"?>
<svg width="45px" height="45px" viewBox="0 0 45 45" version="1.1" xmlns="http://www.w3.org/2000/svg" xmlns:xlink="http://www.w3.org/1999/xlink">
    <!-- Generator: Sketch 52.2 (67145) - http://www.bohemiancoding.com/sketch -->
    <title>icon_26 1</title>
    <desc>Created with Sketch.</desc>
    <g id="Page-1" stroke="none" stroke-width="1" fill="none" fill-rule="evenodd">
        <g id="1280" transform="translate(-60.000000, -1792.000000)">
            <rect fill="#FFFFFF" x="0" y="0" width="1280" height="2915"></rect>
            <g id="Group" transform="translate(30.000000, 1724.000000)">
                <rect id="Rectangle" fill="#2C2C2C" x="0" y="0" width="1220" height="454"></rect>
                <g id="icon_26-1" transform="translate(30.000000, 68.000000)" fill="#4879DA">
                    <path d="M16.875,21.6703125 L10.771875,15.5671875 L7.25625,15.5671875 L0.928125,5.0203125 L5.00625,0.9421875 L15.553125,7.2703125 L15.553125,10.7859375 L21.6703125,16.875 L26.2617188,12.2835937 L24.6726563,7.509375 L32.203125,0 L39.375,2.38359375 L34.6007812,7.1578125 L35.3953125,9.54140625 L37.7789063,10.3359375 L42.5390625,5.56875 L44.9296875,12.7265625 L37.3921875,20.2640625 L32.625,18.6679688 L29.6367188,21.65625 L37.575,29.5945313 L40.7390625,29.5945313 L45,33.8554688 L45,38.9039062 L38.9039062,45 L33.8554688,45 L29.6367188,40.7390625 L29.6367188,37.5609375 L21.6703125,29.6226563 L18.6679688,32.625 L20.2570313,37.3992187 L12.7265625,44.9296875 L5.56875,42.5390625 L10.3429688,37.7648437 L9.5484375,35.38125 L7.16484375,34.5867187 L2.38359375,39.375 L0,32.203125 L7.5375,24.665625 L12.3117188,26.2546875 L16.875,21.6703125 Z M26.4304687,24.8414063 L35.0507812,33.4335938 L33.4546875,35.0296875 L24.8554687,26.4375 L23.2664062,28.0265625 L31.8585937,36.6257813 L31.8585937,39.8039063 L34.7835937,42.7429688 L37.96875,42.7429688 L42.75,37.96875 L42.75,34.790625 L39.8109375,31.8515625 L36.646875,31.8515625 L28.040625,23.2453125 L26.4515625,24.834375 L26.4304687,24.8414063 Z M12.9164063,28.828125 L8.1421875,27.2390625 L2.5734375,32.8078125 L3.36796875,35.1914062 L6.54609375,32.00625 L11.3203125,33.5953125 L12.909375,38.3695312 L9.73125,41.5476562 L12.1148438,42.3421875 L17.6835938,36.7734375 L16.0945312,31.9992187 L24.0539063,24.0539062 L32.0132813,16.0945312 L36.7875,17.6835937 L42.35625,12.1148437 L41.5617187,9.73125 L38.3835938,12.9164062 L33.6023438,11.3203125 L32.0132813,6.553125 L35.1984375,3.375 L32.8078125,2.5734375 L27.2390625,8.1421875 L28.828125,12.9164062 L20.8757812,20.8757812 L12.9164063,28.828125 Z M20.08125,18.4851563 L13.3242187,11.728125 L13.3242187,8.54296875 L5.36484375,3.77578125 L3.77578125,5.36484375 L8.55,13.3171875 L11.7351562,13.3171875 L18.4921875,20.0742188 L20.08125,18.4851563 Z" id="Shape"></path>
                </g>
            </g>
        </g>
    </g>
</svg>