<?xml version="1.0" encoding="UTF-8"?>
<svg width="50px" height="32px" viewBox="0 0 50 32" version="1.1" xmlns="http://www.w3.org/2000/svg" xmlns:xlink="http://www.w3.org/1999/xlink">
    <!-- Generator: Sketch 52.2 (67145) - http://www.bohemiancoding.com/sketch -->
    <title>icons8-f1_race_car_top_veiw</title>
    <desc>Created with Sketch.</desc>
    <defs>
        <polygon id="path-1" points="0.06 0 50 0 50 32 0.06 32"></polygon>
    </defs>
    <g id="Page-1" stroke="none" stroke-width="1" fill="none" fill-rule="evenodd">
        <g id="1280" transform="translate(-135.000000, -970.000000)">
            <rect fill="#FFFFFF" x="0" y="0" width="1280" height="2915"></rect>
            <g id="Card1" transform="translate(30.000000, 943.000000)">
                <rect id="Rectangle" stroke="#DEDEDE" stroke-width="4" x="2" y="2" width="256" height="296" rx="6"></rect>
                <g id="icons8-f1_race_car_top_veiw" transform="translate(105.000000, 27.000000)">
                    <mask id="mask-2" fill="white">
                        <use xlink:href="#path-1"></use>
                    </mask>
                    <g id="Clip-2"></g>
                    <path d="M7,0 C5.906,0 5,0.906 5,2 L5,4 L1,4 C0.969,4 0.938,4 0.906,4 C0.391,4.047 -0.004,4.48 1.11018914e-16,5 L1.11018914e-16,27 C1.11018914e-16,27.551 0.449,28 1,28 L5,28 L5,30 C5,31.094 5.906,32 7,32 L15,32 C16.094,32 17,31.094 17,30 L17,25 C17,23.906 16.094,23 15,23 L13,23 L13,22 L11,22 L11,23 L8,23 L8,21 L16.469,21 L19.156,25.5 C19.332,25.801 19.652,25.992 20,26 L27,26 C27.211,26.004 27.422,25.938 27.594,25.812 L34.344,21 L38,21 C40.004,21 42.133,20.688 44,20.312 L44,27 C44,27.551 44.449,28 45,28 L49,28 C49.551,28 50,27.551 50,27 L50,18.125 C50.004,18.082 50.004,18.043 50,18 L50,14 C50,13.969 50,13.938 50,13.906 L50,5 C50,4.449 49.551,4 49,4 L45,4 C44.969,4 44.938,4 44.906,4 C44.875,4 44.844,4 44.812,4 C44.336,4.09 43.992,4.512 44,5 L44,11.688 C42.145,11.316 40.031,11 38,11 L34.344,11 L27.594,6.188 C27.422,6.062 27.211,5.996 27,6 L20,6 C19.969,6 19.938,6 19.906,6 C19.59,6.039 19.312,6.223 19.156,6.5 L16.469,11 L8,11 L8,9 L11,9 L11,10 L13,10 L13,9 L15,9 C16.094,9 17,8.094 17,7 L17,2 C17,0.906 16.094,0 15,0 L7,0 Z M34,1 C32.906,1 32,1.906 32,3 L32,7 C32,8.094 32.906,9 34,9 L35,9 L35,10 L37,10 L37,9 L38,9 L38,10 L40,10 L40,9 L41,9 C42.094,9 43,8.094 43,7 L43,3 C43,1.906 42.094,1 41,1 L34,1 Z M7,2 L15,2 L15,7 L8,7 C8,6.121 7.609,5.332 7,4.781 L7,2 Z M34,7 L41,7 L41,3 L34,3 L34,7 Z M2,6 L5,6 C5.566,6 6,6.434 6,7 L6,11.844 C5.996,11.895 5.996,11.949 6,12 L6,20 C6,20.031 6,20.062 6,20.094 L6,25 C6,25.566 5.566,26 5,26 L2,26 L2,6 Z M46,6 L48,6 L48,12.688 C47.465,12.531 46.793,12.32 46,12.125 L46,6 Z M20.531,8 L26.656,8 L33.406,12.812 C33.578,12.938 33.789,13.004 34,13 L38,13 C42.328,13 47.031,14.441 48,14.75 L48,17.25 C47.02,17.555 42.23,19 38,19 L34,19 C33.789,18.996 33.578,19.062 33.406,19.188 L26.656,24 L20.531,24 L17.844,19.5 C17.668,19.199 17.348,19.008 17,19 L8,19 L8,13 L17,13 C17.348,12.992 17.668,12.801 17.844,12.5 L20.531,8 Z M21.812,12 C21.336,12.09 20.992,12.512 21,13 L21,19 C21,19.551 21.449,20 22,20 L27,20 C29.199,20 31,18.199 31,16 C31,13.801 29.199,12 27,12 L22,12 C21.969,12 21.938,12 21.906,12 C21.875,12 21.844,12 21.812,12 Z M23,14 L27,14 C28.117,14 29,14.883 29,16 C29,17.117 28.117,18 27,18 L23,18 L23,14 Z M48,19.312 L48,26 L46,26 L46,19.875 C46.785,19.68 47.465,19.469 48,19.312 Z M35,22 L35,23 L34,23 C32.906,23 32,23.906 32,25 L32,29 C32,30.094 32.906,31 34,31 L41,31 C42.094,31 43,30.094 43,29 L43,25 C43,23.906 42.094,23 41,23 L40,23 L40,22 L38,22 L38,23 L37,23 L37,22 L35,22 Z M8,25 L15,25 L15,30 L7,30 L7,27.219 C7.609,26.668 8,25.879 8,25 Z M34,29 L41,29 L41,25 L34,25 L34,29 Z" id="Fill-1" fill="#2E4FA0" mask="url(#mask-2)"></path>
                </g>
            </g>
        </g>
    </g>
</svg>