<svg xmlns="http://www.w3.org/2000/svg" width="47" height="47"><g transform="translate(107 20)"><defs><filter id="A" filterUnits="userSpaceOnUse" x="-106.285" y="-20" width="45.57" height="47"><feColorMatrix values="1 0 0 0 0 0 1 0 0 0 0 0 1 0 0 0 0 0 1 0"/></filter></defs><mask maskUnits="userSpaceOnUse" x="-106.285" y="-20" width="45.57" height="47" id="B"><g filter="url(#A)"><path fill="#fff" d="M-106.285-20h45.57v46.94h-45.57z"/></g></mask><path mask="url(#B)" fill="#2e4fa0" d="M-80.688-20c-.386.074-.69.367-.78.75l-.437 1.78a9.88 9.88 0 0 0-3.844 2.219l-1.75-.5a1 1 0 0 0-1.156.438l-1.5 2.624c-.227.403-.15.903.187 1.22l1.313 1.25C-88.824-9.492-89-8.777-89-8s.176 1.492.344 2.22l-1.313 1.25c-.336.316-.414.816-.187 1.22l1.5 2.624A1 1 0 0 0-87.5-.25l1.75-.5a9.88 9.88 0 0 0 3.844 2.219l.437 1.78A1 1 0 0 0-80.5 4h3a1 1 0 0 0 .969-.75l.437-1.78A9.88 9.88 0 0 0-72.25-.75l1.75.5a1 1 0 0 0 1.156-.438l1.5-2.624c.227-.403.15-.903-.187-1.22l-1.313-1.25C-69.176-6.508-69-7.223-69-8s-.176-1.492-.344-2.22l1.313-1.25c.336-.316.414-.816.187-1.22l-1.5-2.624a1 1 0 0 0-1.156-.438l-1.75.5a9.88 9.88 0 0 0-3.844-2.219l-.437-1.78A1 1 0 0 0-77.5-20h-3.188zm.97 2h1.438l.28 1.125v.094c-.012.476.316.894.78 1a7.91 7.91 0 0 1 4.063 2.343 1 1 0 0 0 1.25.188l.094-.062 1.124-.313.72 1.28-.75.72-.187.094c-.395.238-.574.715-.438 1.156.23.746.344 1.55.344 2.375s-.113 1.63-.344 2.375c-.136.44.043.918.438 1.156l.187.094.75.72-.72 1.28-1.124-.313-.094-.062a1 1 0 0 0-1.25.188 7.91 7.91 0 0 1-4.063 2.343c-.465.106-.793.524-.78 1v.094L-78.28 2h-1.438L-80 .875V.78c.012-.476-.316-.894-.78-1a7.91 7.91 0 0 1-4.063-2.343 1 1 0 0 0-1.25-.188l-.094.062-1.124.313-.72-1.25.875-.813.062-.03v-.03a1 1 0 0 0 .438-1.125C-86.887-6.37-87-7.176-87-8s.113-1.63.344-2.375a1 1 0 0 0-.438-1.125v-.03l-.062-.03-.875-.813.72-1.25 1.124.313.094.062a1 1 0 0 0 1.25-.188 7.91 7.91 0 0 1 4.063-2.343c.465-.106.793-.524.78-1v-.094l.28-1.125zm.72 5c-2.75 0-5 2.25-5 5s2.25 5 5 5 5-2.25 5-5-2.25-5-5-5zm0 2c1.668 0 3 1.332 3 3s-1.332 3-3 3-3-1.332-3-3 1.332-3 3-3zm-17.688 9c-.386.074-.69.367-.78.75l-.437 1.78a9.88 9.88 0 0 0-3.844 2.219l-1.75-.5a1 1 0 0 0-1.156.438l-1.5 2.624c-.227.403-.15.903.187 1.22l1.313 1.25c-.168.727-.344 1.442-.344 2.22s.176 1.492.344 2.22l-1.313 1.25c-.336.316-.414.816-.187 1.22l1.5 2.624a1 1 0 0 0 1.156.438l1.75-.5a9.88 9.88 0 0 0 3.844 2.219l.437 1.78a1 1 0 0 0 .969.75h3a1 1 0 0 0 .969-.75l.437-1.78a9.88 9.88 0 0 0 3.844-2.219l1.75.5a1 1 0 0 0 1.156-.438l1.5-2.624c.227-.403.15-.903-.187-1.22l-1.313-1.25c.168-.727.344-1.442.344-2.22s-.176-1.492-.344-2.22l1.313-1.25c.336-.316.414-.816.187-1.22l-1.5-2.624A1 1 0 0 0-86.5 2.25l-1.75.5A9.88 9.88 0 0 0-92.094.531l-.437-1.78A1 1 0 0 0-93.5-2h-3.188zm.97 2h1.438l.28 1.125v.094c-.012.476.316.894.78 1 1.594.363 2.99 1.183 4.063 2.343a1 1 0 0 0 1.25.188l.094-.062 1.124-.313.72 1.28-.75.72-.187.094c-.395.238-.574.715-.438 1.156.23.746.344 1.55.344 2.375s-.113 1.63-.344 2.375c-.136.44.043.918.438 1.156l.187.094.75.72-.72 1.28-1.124-.313-.094-.062a1 1 0 0 0-1.25.188 7.91 7.91 0 0 1-4.063 2.343c-.465.106-.793.524-.78 1v.094L-94.28 20h-1.438l-.28-1.125v-.094c.012-.476-.316-.894-.78-1a7.91 7.91 0 0 1-4.063-2.343 1 1 0 0 0-1.25-.188l-.094.062-1.124.313-.72-1.25.875-.813.062-.03v-.03a1 1 0 0 0 .438-1.125c-.23-.746-.344-1.55-.344-2.375s.113-1.63.344-2.375a1 1 0 0 0-.438-1.125v-.03l-.062-.03-.875-.813.72-1.25 1.124.313.094.062a1 1 0 0 0 1.25-.188 7.91 7.91 0 0 1 4.063-2.343c.465-.106.793-.524.78-1v-.094L-95.72 0zm22.03 3c-.386.074-.69.367-.78.75l-.437 1.78A9.88 9.88 0 0 0-78.75 7.75l-1.75-.5a1 1 0 0 0-1.156.438l-1.5 2.624c-.227.403-.15.903.187 1.22l1.313 1.25c-.168.727-.344 1.442-.344 2.22s.176 1.492.344 2.22l-1.313 1.25c-.336.316-.414.816-.187 1.22l1.5 2.624a1 1 0 0 0 1.156.438l1.75-.5a9.88 9.88 0 0 0 3.844 2.219l.437 1.78a1 1 0 0 0 .969.75h3a1 1 0 0 0 .969-.75l.437-1.78a9.88 9.88 0 0 0 3.844-2.219l1.75.5a1 1 0 0 0 1.156-.438l1.5-2.624c.227-.403.15-.903-.187-1.22l-1.313-1.25c.168-.727.344-1.442.344-2.22s-.176-1.492-.344-2.22l1.313-1.25c.336-.316.414-.816.187-1.22l-1.5-2.624A1 1 0 0 0-63.5 7.25l-1.75.5a9.88 9.88 0 0 0-3.844-2.219l-.437-1.78A1 1 0 0 0-70.5 3h-3.188zM-95 5c-2.75 0-5 2.25-5 5s2.25 5 5 5 5-2.25 5-5-2.25-5-5-5zm22.28 0h1.438l.28 1.125v.094c-.012.476.316.894.78 1 1.594.363 2.99 1.183 4.063 2.343a1 1 0 0 0 1.25.188l.094-.062 1.124-.313.72 1.28-.75.72-.187.094c-.395.238-.574.715-.438 1.156.23.746.344 1.55.344 2.375s-.113 1.63-.344 2.375c-.136.44.043.918.438 1.156l.187.094.75.72-.72 1.28-1.124-.313-.094-.062a1 1 0 0 0-1.25.188 7.91 7.91 0 0 1-4.063 2.343c-.465.106-.793.524-.78 1v.094L-71.28 25h-1.438l-.28-1.125v-.094c.012-.476-.316-.894-.78-1a7.91 7.91 0 0 1-4.063-2.343 1 1 0 0 0-1.25-.188l-.094.062-1.124.313-.72-1.25.875-.813.062-.03v-.03a1 1 0 0 0 .438-1.125C-79.887 16.63-80 15.824-80 15s.113-1.63.344-2.375a1 1 0 0 0-.438-1.125v-.03l-.062-.03-.875-.813.72-1.25 1.124.313.094.062a1 1 0 0 0 1.25-.188 7.91 7.91 0 0 1 4.063-2.343c.465-.106.793-.524.78-1v-.094L-72.72 5zM-95 7c1.668 0 3 1.332 3 3s-1.332 3-3 3-3-1.332-3-3 1.332-3 3-3zm23 3c-2.75 0-5 2.25-5 5s2.25 5 5 5 5-2.25 5-5-2.25-5-5-5zm0 2c1.668 0 3 1.332 3 3s-1.332 3-3 3-3-1.332-3-3 1.332-3 3-3z"/></g></svg>