<svg xmlns="http://www.w3.org/2000/svg" width="49" height="44"><g transform="translate(106 23)"><defs><filter id="A" filterUnits="userSpaceOnUse" x="-106" y="-23" width="49.048" height="44"><feColorMatrix values="1 0 0 0 0 0 1 0 0 0 0 0 1 0 0 0 0 0 1 0"/></filter></defs><mask maskUnits="userSpaceOnUse" x="-106" y="-23" width="49.048" height="44" id="B"><g filter="url(#A)"><path fill="#fff" d="M-105.94-23H-57v44h-48.94z"/></g></mask><path mask="url(#B)" fill="#2e4fa0" d="M-106-23v2h3.92c4.705 0 7.526.734 9.188 1.562 1.642.82 2.175 1.68 2.45 2.313v.03c.138.336.593 1.72 1.102 3.438l1.685 5.844-.062.03c.245.75.506 1.85.307 2.5-.1.324-.222.562-.674.812S-89.36-4-90.626-4H-106v2h15.374c1.477 0 2.607-.246 3.46-.72.295-.164.54-.375.765-.593l.98 3.562v10.438c0 1.87-1.412 3.312-3.246 3.312H-106v2h12.74v2c0 1.645 1.328 3 2.94 3h3.92c1.612 0 2.94-1.355 2.94-3V-.03l-.03-.125-2.267-8.094-1.715-6-1.163-3.625v-.03c-.414-.965-1.36-2.324-3.4-3.344S-97.18-23-102.08-23H-106zm32.34 1.5c-2.974 0-5.4 2.465-5.4 5.5s2.416 5.5 5.4 5.5c1.05 0 2.018-.312 2.848-.844l-3.858 4.438L-77.335-7l-3.9-.188h-.09a3.31 3.31 0 0 0-2.052.688c-.598.46-1.072 1.21-1.072 2.094 0 1.535 1.125 2.847 2.634 3l3.858.25 3.063.156a5.2 5.2 0 0 0 3.92-1.344h.03l1.838-1.687 3.063 5.437-3.583 4.47c-.4.488-.666 1.035-.827 1.625-.053.078-.09.16-.122.25l-.765 2.062v.032c-.574 1.43-.57 2.94-.245 4.375v.062l1.378 4.813.062.094c.428 1.015 1.432 1.718 2.542 1.718 1.458 0 2.603-1.207 2.695-2.594l.918 1.344c.884 1.356 2.626 1.63 3.982.938.02-.008.04-.02.06-.032 1.444-.882 1.926-2.82 1-4.218l-4.348-6.875 4.103-3.938a.29.29 0 0 0 .03-.031c1.022-1.043 1.754-2.184 2.052-3.438s.115-2.574-.52-3.812v-.03l-5.298-10v-.03c-.69-1.215-1.837-1.91-3.062-2.094-1.046-.156-2.144.062-3.063.687A5.53 5.53 0 0 0-68.269-16c-.001-3.035-2.417-5.5-5.39-5.5zm0 2c1.926 0 3.43 1.535 3.43 3.5s-1.504 3.5-3.43 3.5-3.43-1.535-3.43-3.5 1.504-3.5 3.43-3.5zm6.9 7.53c.17-.015.325-.023.5 0a2.29 2.29 0 0 1 1.685 1.157h-.03l5.298 9.968c.004.012-.004.02 0 .032.428.847.524 1.617.337 2.406s-.705 1.62-1.532 2.468l-4.685 4.5c-.352.333-.414.876-.153 1.282l4.808 7.594v.03c.257.4.145 1.015-.337 1.343-.597.3-1.183.157-1.47-.28l-3.798-5.593c-.042-.34-.25-.633-.55-.782L-68.33 9.75c-.532-.816-.407-1.812.245-2.625l4.01-5c.257-.32.29-.766.092-1.125l-4.012-7.094a.97.97 0 0 0-.705-.508c-.302-.05-.605.047-.826.258l-2.725 2.5A3.34 3.34 0 0 1-74.763-3h-.03l-3.063-.156-3.737-.25c-.452-.047-.888-.535-.888-1 0-.215.065-.336.275-.5s.56-.282.89-.282v-.03l3.92.22 3.123.094c.29.008.574-.117.765-.344l5.298-6.094c.426-.38.94-.582 1.44-.625zM-91.3 2c-.91 0-1.64.133-2.297.406s-1.2.633-2.02 1.125c-.602.36-1.187.707-1.685 1.25S-98.16 6.12-98.16 7c0 1.645 1.328 3 2.94 3h3.92c2.167 0 3.92-1.79 3.92-4s-1.753-4-3.92-4zm0 2c1.167 0 1.96.81 1.96 2s-.793 2-1.96 2h-3.92c-.544 0-.98-.445-.98-1 0-.418.1-.586.337-.844s.65-.562 1.225-.906l1.807-1S-92.058 4-91.3 4zm21.6 7.22l1.777 2.656 1.072 4a.45.45 0 0 0 .03.063c.153.43-.24.968-.765.968-.437 0-.582-.13-.735-.468l-1.348-4.657c-.003-.02.004-.043 0-.062-.195-.887-.2-1.727-.03-2.5zm-15.7 3.593V18c0 .555-.436 1-.98 1h-3.92c-.544 0-.98-.445-.98-1v-2h2.634c1.232 0 2.354-.453 3.246-1.188z"/></g></svg>