<?xml version="1.0" encoding="utf-8"?>
<!-- Generator: Adobe Illustrator 17.0.0, SVG Export Plug-In . SVG Version: 6.00 Build 0)  -->
<!DOCTYPE svg PUBLIC "-//W3C//DTD SVG 1.1//EN" "http://www.w3.org/Graphics/SVG/1.1/DTD/svg11.dtd">
<svg version="1.1" id="Layer_1" xmlns="http://www.w3.org/2000/svg" xmlns:xlink="http://www.w3.org/1999/xlink" x="0px" y="0px"
	 width="51px" height="43px" viewBox="0 0 51 43" enable-background="new 0 0 51 43" xml:space="preserve">
<g>
	<path fill="#2E4FA0" d="M15.38,15.22l1.355,1.992h17.53l1.355-1.992H25.5H15.38z"/>
	<path fill="#2E4FA0" d="M49.008,28.767v-4.223c0.877-1.434,1.195-5.658,1.195-9.403h-7.97l5.977-1.992
		c1.594-0.558-0.638-3.028-3.267-4.622c1.355-0.32,2.39-1.514,2.39-2.948c0-1.673-1.355-3.028-3.028-3.028H40.4
		c-1.036,0-1.992,0.558-2.55,1.434l-0.478-0.638C35.78,1.275,33.31,0.08,30.76,0.16H20.24c-2.55-0.08-5.02,1.116-6.614,3.188
		l-0.478,0.638c-0.558-0.877-1.514-1.434-2.55-1.434H6.694c-1.673,0-3.028,1.355-3.028,3.028c0,1.434,1.036,2.63,2.39,2.948
		c-2.63,1.514-4.86,4.064-3.267,4.622l5.977,1.992H0.797c0,3.745,0.32,7.97,1.195,9.403v4.223H0v13.945h1.992V30.76h12.272v9.96
		h22.472v-9.88h12.272v11.953H51V28.767H49.008z M40.402,4.702h3.905c0.558,0,0.956,0.478,1.036,1.036
		c0,0.558-0.478,0.956-1.036,1.036h-3.905c-0.558,0-0.956-0.478-1.036-1.036C39.446,5.1,39.844,4.702,40.402,4.702z M15.222,4.622
		c1.195-1.594,3.028-2.47,5.02-2.39h10.52c1.992-0.08,3.825,0.797,5.02,2.39l1.514,1.992H13.627l1.594-1.992H15.222z M5.658,5.658
		c0-0.558,0.478-1.036,1.036-1.036h3.905c0.558,0,1.036,0.478,1.036,1.036s-0.478,0.956-1.036,1.036H6.694
		C6.136,6.694,5.658,6.216,5.658,5.658z M12.272,28.688c0,0.08-0.08,0.16-0.08,0.16H4.064c-0.08-0.08-0.08-0.08-0.08-0.16v-2.39
		c1.673,0.637,4.223,0.478,7.65,0.478h0.558v1.913h0.08L12.272,28.688z M36.736,28.768h-1.992v9.96H16.256v-9.96h-1.992v-1.992
		h22.472C36.736,26.776,36.736,28.768,36.736,28.768z M15.06,24.783c1.753-1.355,2.55-3.984,6.216-3.984h8.447
		c3.586,0,4.463,2.63,6.216,3.984H15.06z M47.015,28.688c0,0.08,0,0.16-0.08,0.16h-8.128c0,0-0.08-0.08-0.08-0.16v-1.913h0.558
		c3.506,0,5.977,0.16,7.65-0.478v2.39h0.08V28.688z M46.775,24.146c-0.797,0.398-1.673,0.637-2.55,0.637h-4.94
		c-3.825-2.55-3.984-5.977-9.563-5.977h-8.447c-5.498,0-5.658,3.506-9.562,5.977c-1.673,0.08-3.347,0.08-4.94,0
		c-0.877,0-1.753-0.24-2.55-0.637c-1.036-0.797-1.275-5.1-1.434-7.012h11.953l-1.992-2.71l-7.81-2.55
		c2.072-2.152,5.02-3.267,7.97-3.187h25.18c2.948-0.08,5.897,1.036,7.97,3.188l-7.81,2.55l-1.992,2.79H48.21
		c-0.08,1.833-0.398,6.136-1.434,6.933L46.775,24.146z"/>
</g>
</svg>
