<?xml version="1.0" encoding="utf-8"?>
<!-- Generator: Adobe Illustrator 17.0.0, SVG Export Plug-In . SVG Version: 6.00 Build 0)  -->
<!DOCTYPE svg PUBLIC "-//W3C//DTD SVG 1.1//EN" "http://www.w3.org/Graphics/SVG/1.1/DTD/svg11.dtd">
<svg version="1.1" id="Layer_1" xmlns="http://www.w3.org/2000/svg" xmlns:xlink="http://www.w3.org/1999/xlink" x="0px" y="0px"
	 width="50px" height="52px" viewBox="0 0 50 52" enable-background="new 0 0 50 52" xml:space="preserve">
<path fill="#2E4FA0" d="M26.2,25l2.34-0.403l-3.306-2.5l-0.242-0.242l-0.08-0.242l-2.5-5.645c-0.68-0.092-1.336-0.311-1.935-0.645
	l0.323,4.435L26.2,25z M1.37,28.065c-0.484-2.58,0.726-5.484,2.258-7.58l3.145-4.032c4.113-5.403,5.565-7.5,11.37-7.903
	c0.242-0.645,0.645-1.3,1.2-1.774l0.806-0.806c2.097-2.097,5.484-2.097,7.58,0c1.935,1.935,2.097,5,0.403,7.097l2.097,2.097
	l-1.694,1.774l-2.097-2.097c-0.484,0.403-1.048,0.645-1.613,0.887l2.016,4.677l4.677,3.63v-4.92h2.34V23.8L46.6,21.542L31.048,3.8
	c-0.806-0.887-2.097-1.774-3.226-1.048l-1.3-2.016c2.177-1.3,4.597-0.323,6.3,1.532l16.532,18.7v2.42L25.08,27.66
	c-1.13,0.242-2.58,0.887-2.58,2.258h7.097v4.194l-0.484,0.323l-2.984,2.016h5.887v2.42H20.08v0.726c0,0.887,0.08,2.58,0.887,3.226
	c1.13,0.887,4.84,0.806,6.3,0.806h7.903c-0.806-7.823,4.84-14.84,12.66-15.726c0.484-0.08,0.968-0.08,1.452-0.08v2.42
	c-6.532,0-11.855,5.323-11.855,11.935c0,1.3,0.242,2.58,0.645,3.87H27.258c-5.806-0.08-9.516-0.08-9.516-6.452v-3.145h2.42V29.84
	c0-1.048,0.403-2.016,1.048-2.742l-6.452-2.742l-0.645-2.097l-2.58,2.42l2.097,5.726c1.2,3.306,1.694,4.194,0.726,7.58l-3.065,11.2
	h2.42v2.42H4.194l0.403-2.42H0.645L2.58,36.048l-1.2-7.984L1.37,28.065z M4.516,32.5L5,36.13L3.468,46.855H5L7.097,34.84l-2.58-2.34
	H4.516z M22.5,36.048l4.758-3.226v-0.565H22.5v3.8V36.048z M14.597,16.3l0.565,1.613l1.37,4.355l0.08,0.323l5.806,2.5l0.323-0.08
	l-4.274-4.194l-0.726-9.84c-1.37,0.08-2.66,0.403-3.87,1.13c-1.855,1.13-3.87,4.113-5.242,5.806l-3.145,4.032
	c-1.452,1.935-2.903,5.403-0.806,7.34l4.032,3.8l0.887,0.887l-2.58,15.242H8.87l3.145-11.935c0.806-2.903,0.323-3.387-0.726-6.13
	l-2.66-7.177l4.516-4.274l-0.887-2.742l2.34-0.645L14.597,16.3z M22.257,7.348l4.113,4.113c0.882-1.382,0.486-3.217-0.887-4.113
	C24.504,6.703,23.236,6.703,22.257,7.348z M20.563,8.961c-0.882,1.382-0.486,3.217,0.887,4.113c0.968,0.645,2.258,0.645,3.306,0
	l-4.194-4.113H20.563z M49.363,46.945c-2.66,0-4.758-2.097-4.758-4.758h2.34c0,1.3,1.048,2.34,2.42,2.42v2.34L49.363,46.945z
	 M49.363,51.703c-5.242,0-9.516-4.274-9.516-9.516s4.274-9.516,9.516-9.516v2.42c-3.917,0.007-7.09,3.18-7.097,7.097
	c0,3.87,3.226,7.097,7.097,7.097v2.42V51.703z"/>
</svg>
