<?xml version="1.0" encoding="utf-8"?>
<!-- Generator: Adobe Illustrator 17.0.0, SVG Export Plug-In . SVG Version: 6.00 Build 0)  -->
<!DOCTYPE svg PUBLIC "-//W3C//DTD SVG 1.1//EN" "http://www.w3.org/Graphics/SVG/1.1/DTD/svg11.dtd">
<svg version="1.1" id="Layer_1" xmlns="http://www.w3.org/2000/svg" xmlns:xlink="http://www.w3.org/1999/xlink" x="0px" y="0px"
	 width="48px" height="48px" viewBox="0 0 48 48" enable-background="new 0 0 48 48" xml:space="preserve">
<g>
	<path fill="#2E4FA0" d="M9,8.025h30c1.2-0.3,2.1-1.35,2.1-2.625c0.006-1.486-1.194-2.694-2.68-2.7c-0.007,0-0.013,0-0.02,0h-1.725
		c-0.9,0-1.8,0.45-2.25,1.275l-0.45-0.525c-1.425-1.875-3.6-2.925-5.925-2.85h-8.1c-2.325-0.075-4.575,1.05-6,2.925L13.5,4.05
		c-0.45-0.75-1.35-1.275-2.25-1.275H9.525c-1.486-0.006-2.694,1.194-2.7,2.68c0,0.007,0,0.013,0,0.02C6.9,6.6,7.8,7.725,9,8.025z
		 M36.675,4.5H38.4c0.525,0,0.9,0.375,0.9,0.9s-0.375,0.9-0.9,0.9h-1.725c-0.525,0-0.9-0.375-0.9-0.9S36.225,4.5,36.675,4.5z
		 M15.45,4.425c1.05-1.425,2.7-2.25,4.5-2.175h8.1c1.8,0,3.45,0.75,4.5,2.175l1.35,1.8H14.025L15.45,4.425z M9.6,4.5h1.725
		c0.525,0,0.9,0.375,0.9,0.9s-0.375,0.9-0.9,0.9H9.6c-0.525,0-0.9-0.375-0.9-0.9S9.075,4.5,9.6,4.5z M46.2,43.95V8.025h-1.8V43.95
		h-1.8v-25.2c0.75-1.275,0.675-3.3,0.675-6.675H34.2L33,13.95h8.475C41.4,15.6,41.55,17.7,40.65,18.375
		c-0.675,0.375-1.5,0.6-2.25,0.6c-0.9,0.075-1.8,0.075-2.625,0c-3.45-2.25-3.6-3.6-8.625-3.6h-6.225c-5.025,0-5.175,1.35-8.625,3.6
		c-0.9,0.075-1.8,0.075-2.625,0c-0.75,0-1.575-0.225-2.25-0.6C6.525,17.7,6.675,15.6,6.6,13.95H15l-1.275-1.8h-9
		c0,3.375-0.075,5.4,0.675,6.675V43.95H3.6V8.025H1.8V43.95H0v1.8h12.6v-1.8H7.2V24.3h3.75c1.05,0,1.875-0.825,1.875-1.875V20.7h3.9
		L18,26.325l3.825,2.7l1.65,4.35l0.075,8.775l-1.575,1.575l-1.125,3.75H30l-0.15-1.725H33l-1.125-12.975l0.3-9.375
		c0.519-0.8,0.756-1.75,0.675-2.7h2.4v1.8c0,1.05,0.825,1.875,1.875,1.875h3.75V43.95h-5.4v1.8H48v-1.8
		C48,43.95,46.2,43.95,46.2,43.95z M11.025,22.425c0,0.075-0.075,0.15-0.075,0.15H7.2c-0.075,0-0.075-0.075-0.075-0.15V20.25
		c1.575,0.6,0.225,0.45,3.3,0.45h0.525v1.725C10.95,22.425,11.025,22.425,11.025,22.425z M23.325,27.9l-3.675-2.625l-1.05-4.5h1.2
		l2.025,3.675l4.275,1.275v5.625h-1.425C24.675,31.35,23.325,27.9,23.325,27.9z M24.45,23.325l-1.425-0.45l-1.2-2.175H24.3
		C24.085,21.57,24.137,22.485,24.45,23.325z M26.625,23.4c-0.675-0.75-0.825-1.875-0.375-2.7h0.15l3,3
		C28.5,24.3,27.375,24.15,26.625,23.4z M30.6,25.05l-0.3,6.225h-2.475V25.8C28.8,25.875,29.85,25.65,30.6,25.05z M29.55,43.95
		l-0.6-8.55l-1.5,1.8l0.6,8.55h-4.8l0.3-0.975l1.8-1.8l-0.075-9.9H30l0.975,10.8H29.55C29.55,43.875,29.55,43.95,29.55,43.95z
		 M30.675,22.425l-1.65-1.65h2.025C31.125,21.3,30.975,21.9,30.675,22.425z M15.375,18.975c1.575-1.2,2.325-1.8,5.55-1.8h6.15
		c3.225,0,3.975,0.6,5.55,1.8C32.625,18.975,15.375,18.975,15.375,18.975z M40.8,22.425c0,0.075,0,0.15-0.075,0.15H37.05
		c0,0-0.075-0.075-0.075-0.15v-1.65H37.5c3.15,0,1.8,0.15,3.3-0.45V22.425z"/>
	<path fill="#2E4FA0" d="M15.675,12.15l1.125,1.725h14.325l1.2-1.8H24.9v0.075H15.675z"/>
</g>
</svg>
