<?xml version="1.0" encoding="utf-8"?>
<!-- Generator: Adobe Illustrator 17.0.0, SVG Export Plug-In . SVG Version: 6.00 Build 0)  -->
<!DOCTYPE svg PUBLIC "-//W3C//DTD SVG 1.1//EN" "http://www.w3.org/Graphics/SVG/1.1/DTD/svg11.dtd">
<svg version="1.1" id="Layer_1" xmlns="http://www.w3.org/2000/svg" xmlns:xlink="http://www.w3.org/1999/xlink" x="0px" y="0px"
	 width="44px" height="44px" viewBox="0 0 44 44" enable-background="new 0 0 44 44" xml:space="preserve">
<defs>
	<filter id="Adobe_OpacityMaskFilter" filterUnits="userSpaceOnUse" x="0" y="0" width="43.99" height="43.999">
		<feColorMatrix  type="matrix" values="1 0 0 0 0  0 1 0 0 0  0 0 1 0 0  0 0 0 1 0"/>
	</filter>
</defs>
<mask maskUnits="userSpaceOnUse" x="0" y="0" width="43.99" height="43.999" id="B">
	<g filter="url(#Adobe_OpacityMaskFilter)">
		<path id="A" fill="#FFFFFF" d="M0.057,0.038H44V44H0.057V0.038z"/>
	</g>
</mask>
<path mask="url(#B)" fill="#2E4FA0" d="M19.325,0c-0.467,0-0.867,0.34-0.94,0.8l-0.93,5.698c-1.107,0.322-2.177,0.761-3.191,1.311
	l-4.7-3.355c-0.38-0.272-0.901-0.23-1.233,0.098L4.6,8.27C4.273,8.599,4.227,9.114,4.492,9.495l3.307,4.734
	c-0.557,1.01-1.005,2.08-1.337,3.213L0.8,18.383C0.34,18.461,0,18.857,0,19.323v5.26c0,0.465,0.334,0.864,0.792,0.945l5.672,1.005
	c0.332,1.13,0.78,2.2,1.337,3.214l-3.348,4.685c-0.273,0.378-0.23,0.897,0.098,1.23l3.72,3.722c0.33,0.33,0.845,0.373,1.222,0.108
	l4.74-3.318c1.017,0.554,2.09,0.998,3.201,1.323l0.946,5.702c0.078,0.46,0.474,0.8,0.94,0.8h5.26c0.465,0,0.864-0.334,0.945-0.792
	l1.013-5.724c1.107-0.328,2.176-0.776,3.187-1.334l4.77,3.348c0.381,0.265,0.897,0.22,1.226-0.108l3.717-3.726
	c0.333-0.33,0.374-0.85,0.1-1.233l-3.404-4.722c0.545-0.998,0.982-2.056,1.31-3.165l5.754-1.013c0.457-0.081,0.79-0.477,0.792-0.941
	v-5.26c-0.004-0.467-0.34-0.867-0.803-0.945l-5.747-0.938c-0.323-1.097-0.762-2.156-1.311-3.16l3.355-4.783
	c0.265-0.381,0.22-0.897-0.108-1.226L35.664,4.56c-0.33-0.333-0.85-0.374-1.233-0.1l-4.708,3.39
	c-1.012-0.558-2.082-1.005-3.191-1.331l-1-5.724C25.452,0.333,25.052,0,24.585,0C24.585,0,19.325,0,19.325,0z M20.145,1.913h3.64
	l0.953,5.44c0.068,0.37,0.344,0.67,0.714,0.76c1.378,0.342,2.695,0.892,3.908,1.63c0.33,0.198,0.744,0.18,1.058-0.045l4.473-3.214
	l2.578,2.575l-3.187,4.54c-0.217,0.3-0.23,0.72-0.037,1.045c0.726,1.211,1.27,2.521,1.614,3.89c0.09,0.372,0.396,0.654,0.774,0.714
	l5.46,0.893v3.642l-5.47,0.96c-0.373,0.067-0.671,0.347-0.762,0.714c-0.347,1.4-0.892,2.695-1.6,3.894
	c-0.198,0.324-0.18,0.74,0.04,1.05l3.232,4.484l-2.575,2.582l-4.532-3.183c-0.314-0.217-0.725-0.23-1.046-0.033
	c-1.196,0.724-2.51,1.28-3.905,1.633c-0.366,0.093-0.643,0.392-0.7,0.76l-0.964,5.44h-3.65l-0.9-5.414
	c-0.06-0.378-0.342-0.684-0.714-0.774c-1.397-0.343-2.717-0.896-3.923-1.62c-0.325-0.194-0.733-0.18-1.043,0.037l-4.5,3.154
	l-2.58-2.585l3.18-4.443c0.22-0.3,0.24-0.725,0.04-1.053c-0.737-1.21-1.29-2.53-1.64-3.935c-0.1-0.365-0.388-0.642-0.76-0.7
	l-5.388-0.957v-3.65l5.384-0.893c0.377-0.063,0.68-0.343,0.774-0.7c0.35-1.413,0.904-2.73,1.633-3.942
	c0.198-0.32,0.187-0.733-0.034-1.043L6.53,9.057L9.11,6.48l4.462,3.187c0.306,0.22,0.72,0.236,1.045,0.04
	c1.22-0.733,2.544-1.275,3.927-1.61c0.37-0.094,0.653-0.4,0.714-0.778l0.886-5.406L20.145,1.913z M22,14.348
	c-4.222,0.01-7.642,3.43-7.652,7.652c0.01,4.222,3.43,7.642,7.652,7.652c4.222-0.01,7.642-3.43,7.652-7.652
	C29.642,17.778,26.222,14.358,22,14.348z M22,16.261c3.18,0,5.74,2.56,5.74,5.74s-2.56,5.74-5.74,5.74s-5.74-2.56-5.74-5.74
	S18.82,16.261,22,16.261z"/>
</svg>
