<?xml version="1.0" encoding="utf-8"?>
<!-- Generator: Adobe Illustrator 17.0.0, SVG Export Plug-In . SVG Version: 6.00 Build 0)  -->
<!DOCTYPE svg PUBLIC "-//W3C//DTD SVG 1.1//EN" "http://www.w3.org/Graphics/SVG/1.1/DTD/svg11.dtd">
<svg version="1.1" id="Layer_1" xmlns="http://www.w3.org/2000/svg" xmlns:xlink="http://www.w3.org/1999/xlink" x="0px" y="0px"
	 width="44px" height="44px" viewBox="0 0 44 44" enable-background="new 0 0 44 44" xml:space="preserve">
<path fill="#2E4FA0" d="M6.3,0L5.594,0.675l-4.91,4.91L0,6.3l0.675,0.706L3.62,9.942l0.215,0.184l3.897,0.982L18.656,22
	L7.732,32.893l-3.897,0.982L3.62,34.059l-2.946,2.946L0,37.7l0.675,0.706l4.91,4.91L6.3,44l0.706-0.675l2.946-2.946l0.184-0.215
	l0.982-3.897L22,25.344l10.893,10.923l0.982,3.897l0.184,0.215l2.946,2.946L37.711,44l0.706-0.675l4.91-4.91L44,37.7l-0.675-0.706
	l-2.946-2.946l-0.215-0.184l-3.897-0.982L25.344,22l10.923-10.893l3.897-0.982l0.215-0.184l2.946-2.946L44,6.3l-0.675-0.706
	l-4.91-4.91L37.7,0l-0.706,0.675l-2.946,2.946l-0.184,0.215l-0.982,3.897L22,18.656L11.107,7.732l-0.982-3.897L9.941,3.62
	L6.996,0.675L6.3,0z M6.448,2.973L8.474,5.01l0.973,3.86l0.182,0.213l11.004,10.972c0.757,0.752,1.978,0.752,2.735,0L34.37,9.082
	l0.182-0.213l0.973-3.86l2.037-2.036l3.465,3.465l-2.036,2.037l-3.86,0.973L34.918,9.63L23.946,20.634
	c-0.752,0.757-0.752,1.978,0,2.735L34.918,34.37l0.213,0.182l3.86,0.973l2.036,2.037l-3.465,3.465l-2.037-2.036l-0.973-3.86
	l-0.182-0.213L23.366,23.946c-0.757-0.752-1.978-0.752-2.735,0L9.63,34.918l-0.182,0.213l-0.973,3.86l-2.037,2.036l-3.465-3.465
	l2.036-2.037l3.86-0.973l0.213-0.182l10.972-11.004c0.752-0.757,0.752-1.978,0-2.735L9.082,9.63L8.869,9.448l-3.86-0.973
	L2.973,6.438l3.465-3.465L6.448,2.973z"/>
</svg>
